<svg xmlns="http://www.w3.org/2000/svg" version="1.1" width="992" height="128" viewBox="0"><g transform="translate(0 0)"><path d="M32 19l-6-6v-9h-4v5l-6-6-16 16v1h4v10h10v-6h4v6h10v-10h4z" fill="#000000"/></g><g transform="translate(48 0)"><path d="M16 2l-16 16 3 3 3-3 2 12h6v-6h4v6h6l2-12 3 3 3-3-16-16zM16 14.8c-1.6 0-2.8-1.3-2.8-2.8s1.3-2.8 2.8-2.8c1.6 0 2.8 1.3 2.8 2.8 0 1.6-1.3 2.8-2.8 2.8z" fill="#000000"/></g><g transform="translate(96 0)"><path d="M0 32h16v-32h-16v32zM10 4h4v4h-4v-4zM10 12h4v4h-4v-4zM10 20h4v4h-4v-4zM2 4h4v4h-4v-4zM2 12h4v4h-4v-4zM2 20h4v4h-4v-4zM18 10h14v2h-14zM18 32h4v-8h6v8h4v-18h-14z" fill="#000000"/></g><g transform="translate(144 0)"><path d="M28 8v-4h-28v22c0 1.1 0.9 2 2 2h27c1.7 0 3-1.3 3-3v-17h-4zM26 26h-24v-20h24v20zM4 10h20v2h-20zM16 14h8v2h-8zM16 18h8v2h-8zM16 22h6v2h-6zM4 14h10v10h-10z" fill="#000000"/></g><g transform="translate(192 0)"><path d="M27 0c2.8 0 5 2.2 5 5 0 1.1-0.4 2.2-1 3l-2 2-7-7 2-2c0.8-0.6 1.9-1 3-1zM2 23l-2 9 9-2 18.5-18.5-7-7-18.5 18.5zM22.4 11.4l-14 14-1.7-1.7 14-14 1.7 1.7z" fill="#000000"/></g><g transform="translate(240 0)"><path d="M12 18.3c0 0 6.4-3.8 10-2.3 0.7-1.1 1.5-2.4 2.2-3.6-3.5-0.9-8.2-0.1-8.2-0.1s5.9-3.6 9.6-2.4c0.7-1.3 1.4-2.6 2.1-3.8-2.9-0.2-5.7 0.3-5.7 0.3s3.7-2.2 7.1-2.6c1.1-1.7 2-3.1 2.9-3.7-17.5 0-28 20-32 32h2l6-10c0 0 2 2 8 0 1.4-0.5 2.8-1.8 4.2-3.6-3.5-0.9-8.2-0.1-8.2-0.1z" fill="#000000"/></g><g transform="translate(288 0)"><path d="M28 19.8c00000-0.1000-0.10-0.1-0.3-9.9-12-19.6-12-19.6s-11.7 9.7-12 19.6c0 00 0.10 0.1 0 00 00 0.10 0.10 0.10 0.2 0 0.1 0 0.1 0 0.2 0 0 0 0 0 0 0.1 6.5 5.5 11.8 12 11.8 6.5 0 11.9-5.2 12-11.8 00 00 00 0-0.1 0-0.1 0-0.2 0-0.10-0.10-0.2zM24 20.1l0 0c0 2.1-0.9 4.1-2.4 5.5-1.5 1.5-3.5 2.3-5.6 2.3-0.4 0-0.80-1.2-0.1 4.3-2.6 7.3-7.3 7.3-12.8 0-0.60-1.2-0.1-1.8 1.3 2.3 1.9 4.5 2 6.4l0 0c0 0 0 0.1 0 0.1l0 0c0 0 0 0.1 0 0.1 0 00 0.10 0.1z" fill="#000000"/></g><g transform="translate(336 0)"><path d="M25.5 10.9c-6-4.5-8.1-8.1-9.5-10.9v0c0 0 0 0 0 0v0c-1.4 2.8-3.5 6.4-9.5 10.9-10.3 7.7-0.6 18.4 7.9 12.5-0.6 3.7-2.5 6.3-4.4 7.5v1.2h12v-1.2c-1.9-1.1-3.8-3.8-4.4-7.5 8.5 5.9 18.2-4.8 7.9-12.5z" fill="#000000"/></g><g transform="translate(384 0)"><path d="M24.6 12.3c-1.8 0-3.5 0.8-4.7 2-0.5 0.5-1.4 1.2-2.3 1.7 0.4-1.7 1.8-3.8 2.8-4.7 1.2-1.2 2-2.9 2-4.7 0-3.6-2.9-6.5-6.4-6.5-3.5 0-6.4 3-6.4 6.5 0 1.9 0.8 3.5 2 4.7 1 0.9 2.4 3.1 2.8 4.7-0.9-0.6-1.8-1.2-2.3-1.7-1.2-1.3-2.8-2-4.7-2-3.6 0-6.5 2.9-6.5 6.5 0 3.6 2.9 6.5 6.5 6.5 1.8 0 3.5-0.8 4.7-2 0.5-0.6 1.5-1.3 2.4-1.8-0.1 4.6-2.3 8-4.5 9.3v1.2h12v-1.2c-2.2-1.3-4.4-4.7-4.5-9.3 1 0.6 1.9 1.3 2.4 1.8 1.2 1.3 2.8 2 4.7 2 3.6 0 6.5-2.9 6.5-6.5 0-3.6-2.9-6.5-6.5-6.5z" fill="#000000"/></g><g transform="translate(432 0)"><path d="M16 0l-10 16 10 16 10-16z" fill="#000000"/></g><g transform="translate(480 0)"><path d="M23 19.9c0.6-1.1 1-2.5 1-3.9 0-3.2-1.9-6-4.7-7.3 1-0.9 1.7-2.2 1.7-3.7 0-2.8-2.2-5-5-5-2.8 0-5 2.2-5 5 0 1.5 0.6 2.8 1.7 3.7-2.8 1.3-4.7 4-4.7 7.3 0 1.4 0.4 2.7 1 3.9-4.2 2.4-7 6.9-7 12.1h28c0-5.2-2.8-9.7-7-12.1z" fill="#000000"/></g><g transform="translate(528 0)"><path d="M32 13.4c0-6.3-1.8-11.4-4.1-11.4 0 0 00 00h-2.6c0 0-6.1 4.6-14.9 6.4-0.3 1.4-0.4 3.1-0.4 5 0 1.9 0.2 3.6 0.4 5 8.8 1.8 14.9 6.4 14.9 6.4h2.6c0 00000 2.30 4.1-5.1 4.1-11.4zM27 23.1c-0.3 0-0.6-0.3-0.8-0.5-0.4-0.4-0.8-1.1-1.1-2-0.7-1.9-1.1-4.5-1.1-7.2 0-2.7 0.4-5.3 1.1-7.2 0.3-0.9 0.7-1.5 1.1-2 0.2-0.2 0.5-0.5 0.8-0.5 0.3 0 0.6 0.3 0.8 0.5 0.4 0.4 0.8 1.1 1.1 2 0.7 1.9 1.1 4.5 1.1 7.2 0 2.7-0.4 5.3-1.1 7.2-0.3 0.9-0.7 1.5-1.1 2-0.2 0.2-0.5 0.5-0.8 0.5zM7.9 13.4c0-1.6 0.1-3.2 0.3-4.7-1.5 0.2-2.8 0.3-4.4 0.3-2.1 0-2.1 0-2.1 0l-1.7 3v2.8l1.7 3c0 0 0 0 2.1 0 1.6 0 2.9 0.1 4.4 0.3-0.2-1.5-0.3-3-0.3-4.7zM11.5 20.1l-4-0.8 2.6 10c0.1 0.5 0.6 0.8 1.1 0.6l3.7-1.5c0.5-0.2 0.7-0.7 0.4-1.2l-3.9-7.2zM27 17.1c-0.1 0-0.2-0.1-0.3-0.2-0.2-0.2-0.3-0.4-0.4-0.8-0.3-0.7-0.4-1.7-0.4-2.8 0-1.1 0.2-2 0.4-2.8 0.1-0.3 0.3-0.6 0.4-0.8 0.1-0.1 0.2-0.2 0.3-0.2 0.1 0 0.2 0.1 0.3 0.2 0.2 0.2 0.3 0.4 0.4 0.8 0.3 0.7 0.4 1.7 0.4 2.8 0 1.1-0.2 2-0.4 2.8-0.1 0.3-0.3 0.6-0.4 0.8-0.1 0.1-0.2 0.2-0.3 0.2z" fill="#000000"/></g><g transform="translate(576 0)"><path d="M10 12h4v4h-4zM16 12h4v4h-4zM22 12h4v4h-4zM4 24h4v4h-4zM10 24h4v4h-4zM16 24h4v4h-4zM10 18h4v4h-4zM16 18h4v4h-4zM22 18h4v4h-4zM4 18h4v4h-4zM26 0v2h-4v-2h-14v2h-4v-2h-4v32h30v-32h-4zM28 30h-26v-22h26v22z" fill="#000000"/></g><g transform="translate(624 0)"><path d="M16 2c8.8 0 16 5.8 16 13 0 7.2-7.2 13-16 13-0.8 0-1.7-0.1-2.5-0.2-3.4 3.4-7.5 4.1-11.5 4.1v-0.8c2.1-1 4-3 4-5.1 0-0.30-0.6-0.1-0.9-3.6-2.4-5.9-6-5.9-10.1 0-7.2 7.2-13 16-13z" fill="#000000"/></g><g transform="translate(672 0)"><path d="M22 6h-12l-10 12v8c0 1.1 0.9 2 2 2h28c1.1 0 2-0.9 2-2v-8l-10-12zM20 22h-8l-2-2h12l-2 2zM2.6 18l8.3-10h10.1l8.3 10h-26.8zM8.9 12h14.2l-1.7-2h-10.9zM5.6 16h20.9l-1.7-2h-17.5z" fill="#000000"/></g><g transform="translate(720 0)"><path d="M29 0h-9c-1.7 0-4 1-5.1 2.1l-14 14c-1.2 1.2-1.2 3.1 0 4.3l10.8 10.8c1.2 1.2 3.1 1.2 4.3 0l14-14c1.2-1.2 2.1-3.5 2.1-5.1v-9c0-1.7-1.4-3-3-3zM25 10c-1.7 0-3-1.3-3-3s1.3-3 3-3 3 1.3 3 3-1.3 3-3 3z" fill="#000000"/></g><g transform="translate(768 0)"><path d="M19 12c-1 1-1 1-1 2v14h4c1.1 0 2 0.9 2 2h-16c0-1.1 0.9-2 2-2h4v-14c0-1 0-1-1-2l-8.6-8.6c-0.8-0.8-0.5-1.4 0.6-1.4h22c1.1 0 1.4 0.6 0.6 1.4l-8.6 8.6c0 0 0 0 0 0z" fill="#000000"/></g><g transform="translate(816 0)"><path d="M26.7 0h-21.3c-2.9 0-5.3 2.4-5.3 5.3v21.3c0 2.9 2.4 5.3 5.3 5.3l21.3 0c2.9 0 5.3-2.4 5.3-5.3v-21.3c0-2.9-2.4-5.3-5.3-5.3zM27.2 16h-5.2v14h-6v-14h-2.9v-4.6h2.9v-3c0-4 1.7-6.4 6.5-6.4h5.5v5h-4.5c-1.30-1.5 0.7-1.5 2l0 2.5h6l-0.8 4.6z" fill="#000000"/></g><g transform="translate(864 0)"><path d="M27 0c-2.8 0-5 2.2-5 5v15h4v12h6v-27c0-2.8-2.2-5-5-5zM13 0c-0.6 0-1 0.4-1 1v7c0 0.3-0.4 0.5-1 0.5-0.6 0-1-0.2-1-0.5v-7c0-0.6-0.4-1-1-1-0.6 0-1 0.4-1 1v7c0 0.3-0.4 0.5-1 0.5-0.6 0-1-0.2-1-0.5v-7c0-0.6-0.4-1-1-1-0.6 0-1 0.4-1 1v7c0 0.3-0.4 0.5-1 0.5s-1-0.2-1-0.5v-7c0-0.6-0.4-1-1-1s-1 0.4-1 1v9c0 0.9 0.8 1.4 1.7 2 1.1 0.8 2.3 1.8 2.3 4v16h6v-16c0-2.2 1.2-3.2 2.3-4 0.9-0.6 1.7-1.1 1.7-2v-9c0-0.6-0.4-1-1-1z" fill="#000000"/></g><g transform="translate(912 0)"><path d="M6 18.1v13.9c0.3 0 0.7 0.1 1 0.1h1v-14h-1c-0.3 0-0.7 0-1 0.1zM24 18v14h1c0.3 0 0.70 1-0.1v-13.9c-0.30-0.7-0.1-1-0.1h-1zM32 16c0-8.8-7.2-16-16-16s-16 7.2-16 16c0 1.9 0.3 3.8 1 5.5-0.6 1-1 2.2-1 3.5 0 2.8 1.6 5.2 4 6.3v-12.7c-0.6 0.3-1.2 0.7-1.7 1.2-0.2-0.9-0.3-1.9-0.3-2.8 0-7.7 6.3-14 14-14s14 6.3 14 14c0 1-0.1 1.9-0.3 2.8-0.5-0.5-1.1-0.9-1.7-1.2v12.7c2.4-1.1 4-3.5 4-6.3 0-1.3-0.3-2.5-1-3.5 0.6-1.7 1-3.5 1-5.5z" fill="#000000"/></g><g transform="translate(960 0)"><path d="M9.5 19c0 3.6 2.9 6.5 6.5 6.5s6.5-2.9 6.5-6.5-2.9-6.5-6.5-6.5-6.5 2.9-6.5 6.5zM30 8h-7c-0.5-2-1-4-3-4h-8c-2 0-2.5 2-3 4h-7c-1.1 0-2 0.9-2 2v18c0 1.1 0.9 2 2 2h28c1.1 0 2-0.9 2-2v-18c0-1.1-0.9-2-2-2zM16 27.9c-4.9 0-8.9-4-8.9-8.9 0-4.9 4-8.9 8.9-8.9 4.9 0 8.9 4 8.9 8.9 0 4.9-4 8.9-8.9 8.9zM30 14h-4v-2h4v2z" fill="#000000"/></g><g transform="translate(0 32)"><path d="M32 19l-6-6v-9h-4v5l-6-6-16 16v1h4v10h10v-6h4v6h10v-10h4z" fill="#FF00FF"/></g><g transform="translate(48 32)"><path d="M16 2l-16 16 3 3 3-3 2 12h6v-6h4v6h6l2-12 3 3 3-3-16-16zM16 14.8c-1.6 0-2.8-1.3-2.8-2.8s1.3-2.8 2.8-2.8c1.6 0 2.8 1.3 2.8 2.8 0 1.6-1.3 2.8-2.8 2.8z" fill="#FF00FF"/></g><g transform="translate(96 32)"><path d="M0 32h16v-32h-16v32zM10 4h4v4h-4v-4zM10 12h4v4h-4v-4zM10 20h4v4h-4v-4zM2 4h4v4h-4v-4zM2 12h4v4h-4v-4zM2 20h4v4h-4v-4zM18 10h14v2h-14zM18 32h4v-8h6v8h4v-18h-14z" fill="#FF00FF"/></g><g transform="translate(144 32)"><path d="M28 8v-4h-28v22c0 1.1 0.9 2 2 2h27c1.7 0 3-1.3 3-3v-17h-4zM26 26h-24v-20h24v20zM4 10h20v2h-20zM16 14h8v2h-8zM16 18h8v2h-8zM16 22h6v2h-6zM4 14h10v10h-10z" fill="#FF00FF"/></g><g transform="translate(192 32)"><path d="M27 0c2.8 0 5 2.2 5 5 0 1.1-0.4 2.2-1 3l-2 2-7-7 2-2c0.8-0.6 1.9-1 3-1zM2 23l-2 9 9-2 18.5-18.5-7-7-18.5 18.5zM22.4 11.4l-14 14-1.7-1.7 14-14 1.7 1.7z" fill="#FF00FF"/></g><g transform="translate(240 32)"><path d="M12 18.3c0 0 6.4-3.8 10-2.3 0.7-1.1 1.5-2.4 2.2-3.6-3.5-0.9-8.2-0.1-8.2-0.1s5.9-3.6 9.6-2.4c0.7-1.3 1.4-2.6 2.1-3.8-2.9-0.2-5.7 0.3-5.7 0.3s3.7-2.2 7.1-2.6c1.1-1.7 2-3.1 2.9-3.7-17.5 0-28 20-32 32h2l6-10c0 0 2 2 8 0 1.4-0.5 2.8-1.8 4.2-3.6-3.5-0.9-8.2-0.1-8.2-0.1z" fill="#FF00FF"/></g><g transform="translate(288 32)"><path d="M28 19.8c00000-0.1000-0.10-0.1-0.3-9.9-12-19.6-12-19.6s-11.7 9.7-12 19.6c0 00 0.10 0.1 0 00 00 0.10 0.10 0.10 0.2 0 0.1 0 0.1 0 0.2 0 0 0 0 0 0 0.1 6.5 5.5 11.8 12 11.8 6.5 0 11.9-5.2 12-11.8 00 00 00 0-0.1 0-0.1 0-0.2 0-0.10-0.10-0.2zM24 20.1l0 0c0 2.1-0.9 4.1-2.4 5.5-1.5 1.5-3.5 2.3-5.6 2.3-0.4 0-0.80-1.2-0.1 4.3-2.6 7.3-7.3 7.3-12.8 0-0.60-1.2-0.1-1.8 1.3 2.3 1.9 4.5 2 6.4l0 0c0 0 0 0.1 0 0.1l0 0c0 0 0 0.1 0 0.1 0 00 0.10 0.1z" fill="#FF00FF"/></g><g transform="translate(336 32)"><path d="M25.5 10.9c-6-4.5-8.1-8.1-9.5-10.9v0c0 0 0 0 0 0v0c-1.4 2.8-3.5 6.4-9.5 10.9-10.3 7.7-0.6 18.4 7.9 12.5-0.6 3.7-2.5 6.3-4.4 7.5v1.2h12v-1.2c-1.9-1.1-3.8-3.8-4.4-7.5 8.5 5.9 18.2-4.8 7.9-12.5z" fill="#FF00FF"/></g><g transform="translate(384 32)"><path d="M24.6 12.3c-1.8 0-3.5 0.8-4.7 2-0.5 0.5-1.4 1.2-2.3 1.7 0.4-1.7 1.8-3.8 2.8-4.7 1.2-1.2 2-2.9 2-4.7 0-3.6-2.9-6.5-6.4-6.5-3.5 0-6.4 3-6.4 6.5 0 1.9 0.8 3.5 2 4.7 1 0.9 2.4 3.1 2.8 4.7-0.9-0.6-1.8-1.2-2.3-1.7-1.2-1.3-2.8-2-4.7-2-3.6 0-6.5 2.9-6.5 6.5 0 3.6 2.9 6.5 6.5 6.5 1.8 0 3.5-0.8 4.7-2 0.5-0.6 1.5-1.3 2.4-1.8-0.1 4.6-2.3 8-4.5 9.3v1.2h12v-1.2c-2.2-1.3-4.4-4.7-4.5-9.3 1 0.6 1.9 1.3 2.4 1.8 1.2 1.3 2.8 2 4.7 2 3.6 0 6.5-2.9 6.5-6.5 0-3.6-2.9-6.5-6.5-6.5z" fill="#FF00FF"/></g><g transform="translate(432 32)"><path d="M16 0l-10 16 10 16 10-16z" fill="#FF00FF"/></g><g transform="translate(480 32)"><path d="M23 19.9c0.6-1.1 1-2.5 1-3.9 0-3.2-1.9-6-4.7-7.3 1-0.9 1.7-2.2 1.7-3.7 0-2.8-2.2-5-5-5-2.8 0-5 2.2-5 5 0 1.5 0.6 2.8 1.7 3.7-2.8 1.3-4.7 4-4.7 7.3 0 1.4 0.4 2.7 1 3.9-4.2 2.4-7 6.9-7 12.1h28c0-5.2-2.8-9.7-7-12.1z" fill="#FF00FF"/></g><g transform="translate(528 32)"><path d="M32 13.4c0-6.3-1.8-11.4-4.1-11.4 0 0 00 00h-2.6c0 0-6.1 4.6-14.9 6.4-0.3 1.4-0.4 3.1-0.4 5 0 1.9 0.2 3.6 0.4 5 8.8 1.8 14.9 6.4 14.9 6.4h2.6c0 00000 2.30 4.1-5.1 4.1-11.4zM27 23.1c-0.3 0-0.6-0.3-0.8-0.5-0.4-0.4-0.8-1.1-1.1-2-0.7-1.9-1.1-4.5-1.1-7.2 0-2.7 0.4-5.3 1.1-7.2 0.3-0.9 0.7-1.5 1.1-2 0.2-0.2 0.5-0.5 0.8-0.5 0.3 0 0.6 0.3 0.8 0.5 0.4 0.4 0.8 1.1 1.1 2 0.7 1.9 1.1 4.5 1.1 7.2 0 2.7-0.4 5.3-1.1 7.2-0.3 0.9-0.7 1.5-1.1 2-0.2 0.2-0.5 0.5-0.8 0.5zM7.9 13.4c0-1.6 0.1-3.2 0.3-4.7-1.5 0.2-2.8 0.3-4.4 0.3-2.1 0-2.1 0-2.1 0l-1.7 3v2.8l1.7 3c0 0 0 0 2.1 0 1.6 0 2.9 0.1 4.4 0.3-0.2-1.5-0.3-3-0.3-4.7zM11.5 20.1l-4-0.8 2.6 10c0.1 0.5 0.6 0.8 1.1 0.6l3.7-1.5c0.5-0.2 0.7-0.7 0.4-1.2l-3.9-7.2zM27 17.1c-0.1 0-0.2-0.1-0.3-0.2-0.2-0.2-0.3-0.4-0.4-0.8-0.3-0.7-0.4-1.7-0.4-2.8 0-1.1 0.2-2 0.4-2.8 0.1-0.3 0.3-0.6 0.4-0.8 0.1-0.1 0.2-0.2 0.3-0.2 0.1 0 0.2 0.1 0.3 0.2 0.2 0.2 0.3 0.4 0.4 0.8 0.3 0.7 0.4 1.7 0.4 2.8 0 1.1-0.2 2-0.4 2.8-0.1 0.3-0.3 0.6-0.4 0.8-0.1 0.1-0.2 0.2-0.3 0.2z" fill="#FF00FF"/></g><g transform="translate(576 32)"><path d="M10 12h4v4h-4zM16 12h4v4h-4zM22 12h4v4h-4zM4 24h4v4h-4zM10 24h4v4h-4zM16 24h4v4h-4zM10 18h4v4h-4zM16 18h4v4h-4zM22 18h4v4h-4zM4 18h4v4h-4zM26 0v2h-4v-2h-14v2h-4v-2h-4v32h30v-32h-4zM28 30h-26v-22h26v22z" fill="#FF00FF"/></g><g transform="translate(624 32)"><path d="M16 2c8.8 0 16 5.8 16 13 0 7.2-7.2 13-16 13-0.8 0-1.7-0.1-2.5-0.2-3.4 3.4-7.5 4.1-11.5 4.1v-0.8c2.1-1 4-3 4-5.1 0-0.30-0.6-0.1-0.9-3.6-2.4-5.9-6-5.9-10.1 0-7.2 7.2-13 16-13z" fill="#FF00FF"/></g><g transform="translate(672 32)"><path d="M22 6h-12l-10 12v8c0 1.1 0.9 2 2 2h28c1.1 0 2-0.9 2-2v-8l-10-12zM20 22h-8l-2-2h12l-2 2zM2.6 18l8.3-10h10.1l8.3 10h-26.8zM8.9 12h14.2l-1.7-2h-10.9zM5.6 16h20.9l-1.7-2h-17.5z" fill="#FF00FF"/></g><g transform="translate(720 32)"><path d="M29 0h-9c-1.7 0-4 1-5.1 2.1l-14 14c-1.2 1.2-1.2 3.1 0 4.3l10.8 10.8c1.2 1.2 3.1 1.2 4.3 0l14-14c1.2-1.2 2.1-3.5 2.1-5.1v-9c0-1.7-1.4-3-3-3zM25 10c-1.7 0-3-1.3-3-3s1.3-3 3-3 3 1.3 3 3-1.3 3-3 3z" fill="#FF00FF"/></g><g transform="translate(768 32)"><path d="M19 12c-1 1-1 1-1 2v14h4c1.1 0 2 0.9 2 2h-16c0-1.1 0.9-2 2-2h4v-14c0-1 0-1-1-2l-8.6-8.6c-0.8-0.8-0.5-1.4 0.6-1.4h22c1.1 0 1.4 0.6 0.6 1.4l-8.6 8.6c0 0 0 0 0 0z" fill="#FF00FF"/></g><g transform="translate(816 32)"><path d="M26.7 0h-21.3c-2.9 0-5.3 2.4-5.3 5.3v21.3c0 2.9 2.4 5.3 5.3 5.3l21.3 0c2.9 0 5.3-2.4 5.3-5.3v-21.3c0-2.9-2.4-5.3-5.3-5.3zM27.2 16h-5.2v14h-6v-14h-2.9v-4.6h2.9v-3c0-4 1.7-6.4 6.5-6.4h5.5v5h-4.5c-1.30-1.5 0.7-1.5 2l0 2.5h6l-0.8 4.6z" fill="#FF00FF"/></g><g transform="translate(864 32)"><path d="M27 0c-2.8 0-5 2.2-5 5v15h4v12h6v-27c0-2.8-2.2-5-5-5zM13 0c-0.6 0-1 0.4-1 1v7c0 0.3-0.4 0.5-1 0.5-0.6 0-1-0.2-1-0.5v-7c0-0.6-0.4-1-1-1-0.6 0-1 0.4-1 1v7c0 0.3-0.4 0.5-1 0.5-0.6 0-1-0.2-1-0.5v-7c0-0.6-0.4-1-1-1-0.6 0-1 0.4-1 1v7c0 0.3-0.4 0.5-1 0.5s-1-0.2-1-0.5v-7c0-0.6-0.4-1-1-1s-1 0.4-1 1v9c0 0.9 0.8 1.4 1.7 2 1.1 0.8 2.3 1.8 2.3 4v16h6v-16c0-2.2 1.2-3.2 2.3-4 0.9-0.6 1.7-1.1 1.7-2v-9c0-0.6-0.4-1-1-1z" fill="#FF00FF"/></g><g transform="translate(912 32)"><path d="M6 18.1v13.9c0.3 0 0.7 0.1 1 0.1h1v-14h-1c-0.3 0-0.7 0-1 0.1zM24 18v14h1c0.3 0 0.70 1-0.1v-13.9c-0.30-0.7-0.1-1-0.1h-1zM32 16c0-8.8-7.2-16-16-16s-16 7.2-16 16c0 1.9 0.3 3.8 1 5.5-0.6 1-1 2.2-1 3.5 0 2.8 1.6 5.2 4 6.3v-12.7c-0.6 0.3-1.2 0.7-1.7 1.2-0.2-0.9-0.3-1.9-0.3-2.8 0-7.7 6.3-14 14-14s14 6.3 14 14c0 1-0.1 1.9-0.3 2.8-0.5-0.5-1.1-0.9-1.7-1.2v12.7c2.4-1.1 4-3.5 4-6.3 0-1.3-0.3-2.5-1-3.5 0.6-1.7 1-3.5 1-5.5z" fill="#FF00FF"/></g><g transform="translate(960 32)"><path d="M9.5 19c0 3.6 2.9 6.5 6.5 6.5s6.5-2.9 6.5-6.5-2.9-6.5-6.5-6.5-6.5 2.9-6.5 6.5zM30 8h-7c-0.5-2-1-4-3-4h-8c-2 0-2.5 2-3 4h-7c-1.1 0-2 0.9-2 2v18c0 1.1 0.9 2 2 2h28c1.1 0 2-0.9 2-2v-18c0-1.1-0.9-2-2-2zM16 27.9c-4.9 0-8.9-4-8.9-8.9 0-4.9 4-8.9 8.9-8.9 4.9 0 8.9 4 8.9 8.9 0 4.9-4 8.9-8.9 8.9zM30 14h-4v-2h4v2z" fill="#FF00FF"/></g><g transform="translate(0 64)"><path d="M32 19l-6-6v-9h-4v5l-6-6-16 16v1h4v10h10v-6h4v6h10v-10h4z" fill="#000000"/></g><g transform="translate(48 64)"><path d="M16 2l-16 16 3 3 3-3 2 12h6v-6h4v6h6l2-12 3 3 3-3-16-16zM16 14.8c-1.6 0-2.8-1.3-2.8-2.8s1.3-2.8 2.8-2.8c1.6 0 2.8 1.3 2.8 2.8 0 1.6-1.3 2.8-2.8 2.8z" fill="#000000"/></g><g transform="translate(96 64)"><path d="M0 32h16v-32h-16v32zM10 4h4v4h-4v-4zM10 12h4v4h-4v-4zM10 20h4v4h-4v-4zM2 4h4v4h-4v-4zM2 12h4v4h-4v-4zM2 20h4v4h-4v-4zM18 10h14v2h-14zM18 32h4v-8h6v8h4v-18h-14z" fill="#000000"/></g><g transform="translate(144 64)"><path d="M28 8v-4h-28v22c0 1.1 0.9 2 2 2h27c1.7 0 3-1.3 3-3v-17h-4zM26 26h-24v-20h24v20zM4 10h20v2h-20zM16 14h8v2h-8zM16 18h8v2h-8zM16 22h6v2h-6zM4 14h10v10h-10z" fill="#000000"/></g><g transform="translate(192 64)"><path d="M27 0c2.8 0 5 2.2 5 5 0 1.1-0.4 2.2-1 3l-2 2-7-7 2-2c0.8-0.6 1.9-1 3-1zM2 23l-2 9 9-2 18.5-18.5-7-7-18.5 18.5zM22.4 11.4l-14 14-1.7-1.7 14-14 1.7 1.7z" fill="#000000"/></g><g transform="translate(240 64)"><path d="M12 18.3c0 0 6.4-3.8 10-2.3 0.7-1.1 1.5-2.4 2.2-3.6-3.5-0.9-8.2-0.1-8.2-0.1s5.9-3.6 9.6-2.4c0.7-1.3 1.4-2.6 2.1-3.8-2.9-0.2-5.7 0.3-5.7 0.3s3.7-2.2 7.1-2.6c1.1-1.7 2-3.1 2.9-3.7-17.5 0-28 20-32 32h2l6-10c0 0 2 2 8 0 1.4-0.5 2.8-1.8 4.2-3.6-3.5-0.9-8.2-0.1-8.2-0.1z" fill="#000000"/></g><g transform="translate(288 64)"><path d="M28 19.8c00000-0.1000-0.10-0.1-0.3-9.9-12-19.6-12-19.6s-11.7 9.7-12 19.6c0 00 0.10 0.1 0 00 00 0.10 0.10 0.10 0.2 0 0.1 0 0.1 0 0.2 0 0 0 0 0 0 0.1 6.5 5.5 11.8 12 11.8 6.5 0 11.9-5.2 12-11.8 00 00 00 0-0.1 0-0.1 0-0.2 0-0.10-0.10-0.2zM24 20.1l0 0c0 2.1-0.9 4.1-2.4 5.5-1.5 1.5-3.5 2.3-5.6 2.3-0.4 0-0.80-1.2-0.1 4.3-2.6 7.3-7.3 7.3-12.8 0-0.60-1.2-0.1-1.8 1.3 2.3 1.9 4.5 2 6.4l0 0c0 0 0 0.1 0 0.1l0 0c0 0 0 0.1 0 0.1 0 00 0.10 0.1z" fill="#000000"/></g><g transform="translate(336 64)"><path d="M25.5 10.9c-6-4.5-8.1-8.1-9.5-10.9v0c0 0 0 0 0 0v0c-1.4 2.8-3.5 6.4-9.5 10.9-10.3 7.7-0.6 18.4 7.9 12.5-0.6 3.7-2.5 6.3-4.4 7.5v1.2h12v-1.2c-1.9-1.1-3.8-3.8-4.4-7.5 8.5 5.9 18.2-4.8 7.9-12.5z" fill="#000000"/></g><g transform="translate(384 64)"><path d="M24.6 12.3c-1.8 0-3.5 0.8-4.7 2-0.5 0.5-1.4 1.2-2.3 1.7 0.4-1.7 1.8-3.8 2.8-4.7 1.2-1.2 2-2.9 2-4.7 0-3.6-2.9-6.5-6.4-6.5-3.5 0-6.4 3-6.4 6.5 0 1.9 0.8 3.5 2 4.7 1 0.9 2.4 3.1 2.8 4.7-0.9-0.6-1.8-1.2-2.3-1.7-1.2-1.3-2.8-2-4.7-2-3.6 0-6.5 2.9-6.5 6.5 0 3.6 2.9 6.5 6.5 6.5 1.8 0 3.5-0.8 4.7-2 0.5-0.6 1.5-1.3 2.4-1.8-0.1 4.6-2.3 8-4.5 9.3v1.2h12v-1.2c-2.2-1.3-4.4-4.7-4.5-9.3 1 0.6 1.9 1.3 2.4 1.8 1.2 1.3 2.8 2 4.7 2 3.6 0 6.5-2.9 6.5-6.5 0-3.6-2.9-6.5-6.5-6.5z" fill="#000000"/></g><g transform="translate(432 64)"><path d="M16 0l-10 16 10 16 10-16z" fill="#000000"/></g><g transform="translate(480 64)"><path d="M23 19.9c0.6-1.1 1-2.5 1-3.9 0-3.2-1.9-6-4.7-7.3 1-0.9 1.7-2.2 1.7-3.7 0-2.8-2.2-5-5-5-2.8 0-5 2.2-5 5 0 1.5 0.6 2.8 1.7 3.7-2.8 1.3-4.7 4-4.7 7.3 0 1.4 0.4 2.7 1 3.9-4.2 2.4-7 6.9-7 12.1h28c0-5.2-2.8-9.7-7-12.1z" fill="#000000"/></g><g transform="translate(528 64)"><path d="M32 13.4c0-6.3-1.8-11.4-4.1-11.4 0 0 00 00h-2.6c0 0-6.1 4.6-14.9 6.4-0.3 1.4-0.4 3.1-0.4 5 0 1.9 0.2 3.6 0.4 5 8.8 1.8 14.9 6.4 14.9 6.4h2.6c0 00000 2.30 4.1-5.1 4.1-11.4zM27 23.1c-0.3 0-0.6-0.3-0.8-0.5-0.4-0.4-0.8-1.1-1.1-2-0.7-1.9-1.1-4.5-1.1-7.2 0-2.7 0.4-5.3 1.1-7.2 0.3-0.9 0.7-1.5 1.1-2 0.2-0.2 0.5-0.5 0.8-0.5 0.3 0 0.6 0.3 0.8 0.5 0.4 0.4 0.8 1.1 1.1 2 0.7 1.9 1.1 4.5 1.1 7.2 0 2.7-0.4 5.3-1.1 7.2-0.3 0.9-0.7 1.5-1.1 2-0.2 0.2-0.5 0.5-0.8 0.5zM7.9 13.4c0-1.6 0.1-3.2 0.3-4.7-1.5 0.2-2.8 0.3-4.4 0.3-2.1 0-2.1 0-2.1 0l-1.7 3v2.8l1.7 3c0 0 0 0 2.1 0 1.6 0 2.9 0.1 4.4 0.3-0.2-1.5-0.3-3-0.3-4.7zM11.5 20.1l-4-0.8 2.6 10c0.1 0.5 0.6 0.8 1.1 0.6l3.7-1.5c0.5-0.2 0.7-0.7 0.4-1.2l-3.9-7.2zM27 17.1c-0.1 0-0.2-0.1-0.3-0.2-0.2-0.2-0.3-0.4-0.4-0.8-0.3-0.7-0.4-1.7-0.4-2.8 0-1.1 0.2-2 0.4-2.8 0.1-0.3 0.3-0.6 0.4-0.8 0.1-0.1 0.2-0.2 0.3-0.2 0.1 0 0.2 0.1 0.3 0.2 0.2 0.2 0.3 0.4 0.4 0.8 0.3 0.7 0.4 1.7 0.4 2.8 0 1.1-0.2 2-0.4 2.8-0.1 0.3-0.3 0.6-0.4 0.8-0.1 0.1-0.2 0.2-0.3 0.2z" fill="#000000"/></g><g transform="translate(576 64)"><path d="M10 12h4v4h-4zM16 12h4v4h-4zM22 12h4v4h-4zM4 24h4v4h-4zM10 24h4v4h-4zM16 24h4v4h-4zM10 18h4v4h-4zM16 18h4v4h-4zM22 18h4v4h-4zM4 18h4v4h-4zM26 0v2h-4v-2h-14v2h-4v-2h-4v32h30v-32h-4zM28 30h-26v-22h26v22z" fill="#000000"/></g><g transform="translate(624 64)"><path d="M16 2c8.8 0 16 5.8 16 13 0 7.2-7.2 13-16 13-0.8 0-1.7-0.1-2.5-0.2-3.4 3.4-7.5 4.1-11.5 4.1v-0.8c2.1-1 4-3 4-5.1 0-0.30-0.6-0.1-0.9-3.6-2.4-5.9-6-5.9-10.1 0-7.2 7.2-13 16-13z" fill="#000000"/></g><g transform="translate(672 64)"><path d="M22 6h-12l-10 12v8c0 1.1 0.9 2 2 2h28c1.1 0 2-0.9 2-2v-8l-10-12zM20 22h-8l-2-2h12l-2 2zM2.6 18l8.3-10h10.1l8.3 10h-26.8zM8.9 12h14.2l-1.7-2h-10.9zM5.6 16h20.9l-1.7-2h-17.5z" fill="#000000"/></g><g transform="translate(720 64)"><path d="M29 0h-9c-1.7 0-4 1-5.1 2.1l-14 14c-1.2 1.2-1.2 3.1 0 4.3l10.8 10.8c1.2 1.2 3.1 1.2 4.3 0l14-14c1.2-1.2 2.1-3.5 2.1-5.1v-9c0-1.7-1.4-3-3-3zM25 10c-1.7 0-3-1.3-3-3s1.3-3 3-3 3 1.3 3 3-1.3 3-3 3z" fill="#000000"/></g><g transform="translate(768 64)"><path d="M19 12c-1 1-1 1-1 2v14h4c1.1 0 2 0.9 2 2h-16c0-1.1 0.9-2 2-2h4v-14c0-1 0-1-1-2l-8.6-8.6c-0.8-0.8-0.5-1.4 0.6-1.4h22c1.1 0 1.4 0.6 0.6 1.4l-8.6 8.6c0 0 0 0 0 0z" fill="#000000"/></g><g transform="translate(816 64)"><path d="M26.7 0h-21.3c-2.9 0-5.3 2.4-5.3 5.3v21.3c0 2.9 2.4 5.3 5.3 5.3l21.3 0c2.9 0 5.3-2.4 5.3-5.3v-21.3c0-2.9-2.4-5.3-5.3-5.3zM27.2 16h-5.2v14h-6v-14h-2.9v-4.6h2.9v-3c0-4 1.7-6.4 6.5-6.4h5.5v5h-4.5c-1.30-1.5 0.7-1.5 2l0 2.5h6l-0.8 4.6z" fill="#000000"/></g><g transform="translate(864 64)"><path d="M27 0c-2.8 0-5 2.2-5 5v15h4v12h6v-27c0-2.8-2.2-5-5-5zM13 0c-0.6 0-1 0.4-1 1v7c0 0.3-0.4 0.5-1 0.5-0.6 0-1-0.2-1-0.5v-7c0-0.6-0.4-1-1-1-0.6 0-1 0.4-1 1v7c0 0.3-0.4 0.5-1 0.5-0.6 0-1-0.2-1-0.5v-7c0-0.6-0.4-1-1-1-0.6 0-1 0.4-1 1v7c0 0.3-0.4 0.5-1 0.5s-1-0.2-1-0.5v-7c0-0.6-0.4-1-1-1s-1 0.4-1 1v9c0 0.9 0.8 1.4 1.7 2 1.1 0.8 2.3 1.8 2.3 4v16h6v-16c0-2.2 1.2-3.2 2.3-4 0.9-0.6 1.7-1.1 1.7-2v-9c0-0.6-0.4-1-1-1z" fill="#000000"/></g><g transform="translate(912 64)"><path d="M6 18.1v13.9c0.3 0 0.7 0.1 1 0.1h1v-14h-1c-0.3 0-0.7 0-1 0.1zM24 18v14h1c0.3 0 0.70 1-0.1v-13.9c-0.30-0.7-0.1-1-0.1h-1zM32 16c0-8.8-7.2-16-16-16s-16 7.2-16 16c0 1.9 0.3 3.8 1 5.5-0.6 1-1 2.2-1 3.5 0 2.8 1.6 5.2 4 6.3v-12.7c-0.6 0.3-1.2 0.7-1.7 1.2-0.2-0.9-0.3-1.9-0.3-2.8 0-7.7 6.3-14 14-14s14 6.3 14 14c0 1-0.1 1.9-0.3 2.8-0.5-0.5-1.1-0.9-1.7-1.2v12.7c2.4-1.1 4-3.5 4-6.3 0-1.3-0.3-2.5-1-3.5 0.6-1.7 1-3.5 1-5.5z" fill="#000000"/></g><g transform="translate(960 64)"><path d="M9.5 19c0 3.6 2.9 6.5 6.5 6.5s6.5-2.9 6.5-6.5-2.9-6.5-6.5-6.5-6.5 2.9-6.5 6.5zM30 8h-7c-0.5-2-1-4-3-4h-8c-2 0-2.5 2-3 4h-7c-1.1 0-2 0.9-2 2v18c0 1.1 0.9 2 2 2h28c1.1 0 2-0.9 2-2v-18c0-1.1-0.9-2-2-2zM16 27.9c-4.9 0-8.9-4-8.9-8.9 0-4.9 4-8.9 8.9-8.9 4.9 0 8.9 4 8.9 8.9 0 4.9-4 8.9-8.9 8.9zM30 14h-4v-2h4v2z" fill="#000000"/></g><g transform="translate(0 96)"><path d="M32 19l-6-6v-9h-4v5l-6-6-16 16v1h4v10h10v-6h4v6h10v-10h4z" fill="#FF00FF"/></g><g transform="translate(48 96)"><path d="M16 2l-16 16 3 3 3-3 2 12h6v-6h4v6h6l2-12 3 3 3-3-16-16zM16 14.8c-1.6 0-2.8-1.3-2.8-2.8s1.3-2.8 2.8-2.8c1.6 0 2.8 1.3 2.8 2.8 0 1.6-1.3 2.8-2.8 2.8z" fill="#FF00FF"/></g><g transform="translate(96 96)"><path d="M0 32h16v-32h-16v32zM10 4h4v4h-4v-4zM10 12h4v4h-4v-4zM10 20h4v4h-4v-4zM2 4h4v4h-4v-4zM2 12h4v4h-4v-4zM2 20h4v4h-4v-4zM18 10h14v2h-14zM18 32h4v-8h6v8h4v-18h-14z" fill="#FF00FF"/></g><g transform="translate(144 96)"><path d="M28 8v-4h-28v22c0 1.1 0.9 2 2 2h27c1.7 0 3-1.3 3-3v-17h-4zM26 26h-24v-20h24v20zM4 10h20v2h-20zM16 14h8v2h-8zM16 18h8v2h-8zM16 22h6v2h-6zM4 14h10v10h-10z" fill="#FF00FF"/></g><g transform="translate(192 96)"><path d="M27 0c2.8 0 5 2.2 5 5 0 1.1-0.4 2.2-1 3l-2 2-7-7 2-2c0.8-0.6 1.9-1 3-1zM2 23l-2 9 9-2 18.5-18.5-7-7-18.5 18.5zM22.4 11.4l-14 14-1.7-1.7 14-14 1.7 1.7z" fill="#FF00FF"/></g><g transform="translate(240 96)"><path d="M12 18.3c0 0 6.4-3.8 10-2.3 0.7-1.1 1.5-2.4 2.2-3.6-3.5-0.9-8.2-0.1-8.2-0.1s5.9-3.6 9.6-2.4c0.7-1.3 1.4-2.6 2.1-3.8-2.9-0.2-5.7 0.3-5.7 0.3s3.7-2.2 7.1-2.6c1.1-1.7 2-3.1 2.9-3.7-17.5 0-28 20-32 32h2l6-10c0 0 2 2 8 0 1.4-0.5 2.8-1.8 4.2-3.6-3.5-0.9-8.2-0.1-8.2-0.1z" fill="#FF00FF"/></g><g transform="translate(288 96)"><path d="M28 19.8c00000-0.1000-0.10-0.1-0.3-9.9-12-19.6-12-19.6s-11.7 9.7-12 19.6c0 00 0.10 0.1 0 00 00 0.10 0.10 0.10 0.2 0 0.1 0 0.1 0 0.2 0 0 0 0 0 0 0.1 6.5 5.5 11.8 12 11.8 6.5 0 11.9-5.2 12-11.8 00 00 00 0-0.1 0-0.1 0-0.2 0-0.10-0.10-0.2zM24 20.1l0 0c0 2.1-0.9 4.1-2.4 5.5-1.5 1.5-3.5 2.3-5.6 2.3-0.4 0-0.80-1.2-0.1 4.3-2.6 7.3-7.3 7.3-12.8 0-0.60-1.2-0.1-1.8 1.3 2.3 1.9 4.5 2 6.4l0 0c0 0 0 0.1 0 0.1l0 0c0 0 0 0.1 0 0.1 0 00 0.10 0.1z" fill="#FF00FF"/></g><g transform="translate(336 96)"><path d="M25.5 10.9c-6-4.5-8.1-8.1-9.5-10.9v0c0 0 0 0 0 0v0c-1.4 2.8-3.5 6.4-9.5 10.9-10.3 7.7-0.6 18.4 7.9 12.5-0.6 3.7-2.5 6.3-4.4 7.5v1.2h12v-1.2c-1.9-1.1-3.8-3.8-4.4-7.5 8.5 5.9 18.2-4.8 7.9-12.5z" fill="#FF00FF"/></g><g transform="translate(384 96)"><path d="M24.6 12.3c-1.8 0-3.5 0.8-4.7 2-0.5 0.5-1.4 1.2-2.3 1.7 0.4-1.7 1.8-3.8 2.8-4.7 1.2-1.2 2-2.9 2-4.7 0-3.6-2.9-6.5-6.4-6.5-3.5 0-6.4 3-6.4 6.5 0 1.9 0.8 3.5 2 4.7 1 0.9 2.4 3.1 2.8 4.7-0.9-0.6-1.8-1.2-2.3-1.7-1.2-1.3-2.8-2-4.7-2-3.6 0-6.5 2.9-6.5 6.5 0 3.6 2.9 6.5 6.5 6.5 1.8 0 3.5-0.8 4.7-2 0.5-0.6 1.5-1.3 2.4-1.8-0.1 4.6-2.3 8-4.5 9.3v1.2h12v-1.2c-2.2-1.3-4.4-4.7-4.5-9.3 1 0.6 1.9 1.3 2.4 1.8 1.2 1.3 2.8 2 4.7 2 3.6 0 6.5-2.9 6.5-6.5 0-3.6-2.9-6.5-6.5-6.5z" fill="#FF00FF"/></g><g transform="translate(432 96)"><path d="M16 0l-10 16 10 16 10-16z" fill="#FF00FF"/></g><g transform="translate(480 96)"><path d="M23 19.9c0.6-1.1 1-2.5 1-3.9 0-3.2-1.9-6-4.7-7.3 1-0.9 1.7-2.2 1.7-3.7 0-2.8-2.2-5-5-5-2.8 0-5 2.2-5 5 0 1.5 0.6 2.8 1.7 3.7-2.8 1.3-4.7 4-4.7 7.3 0 1.4 0.4 2.7 1 3.9-4.2 2.4-7 6.9-7 12.1h28c0-5.2-2.8-9.7-7-12.1z" fill="#FF00FF"/></g><g transform="translate(528 96)"><path d="M32 13.4c0-6.3-1.8-11.4-4.1-11.4 0 0 00 00h-2.6c0 0-6.1 4.6-14.9 6.4-0.3 1.4-0.4 3.1-0.4 5 0 1.9 0.2 3.6 0.4 5 8.8 1.8 14.9 6.4 14.9 6.4h2.6c0 00000 2.30 4.1-5.1 4.1-11.4zM27 23.1c-0.3 0-0.6-0.3-0.8-0.5-0.4-0.4-0.8-1.1-1.1-2-0.7-1.9-1.1-4.5-1.1-7.2 0-2.7 0.4-5.3 1.1-7.2 0.3-0.9 0.7-1.5 1.1-2 0.2-0.2 0.5-0.5 0.8-0.5 0.3 0 0.6 0.3 0.8 0.5 0.4 0.4 0.8 1.1 1.1 2 0.7 1.9 1.1 4.5 1.1 7.2 0 2.7-0.4 5.3-1.1 7.2-0.3 0.9-0.7 1.5-1.1 2-0.2 0.2-0.5 0.5-0.8 0.5zM7.9 13.4c0-1.6 0.1-3.2 0.3-4.7-1.5 0.2-2.8 0.3-4.4 0.3-2.1 0-2.1 0-2.1 0l-1.7 3v2.8l1.7 3c0 0 0 0 2.1 0 1.6 0 2.9 0.1 4.4 0.3-0.2-1.5-0.3-3-0.3-4.7zM11.5 20.1l-4-0.8 2.6 10c0.1 0.5 0.6 0.8 1.1 0.6l3.7-1.5c0.5-0.2 0.7-0.7 0.4-1.2l-3.9-7.2zM27 17.1c-0.1 0-0.2-0.1-0.3-0.2-0.2-0.2-0.3-0.4-0.4-0.8-0.3-0.7-0.4-1.7-0.4-2.8 0-1.1 0.2-2 0.4-2.8 0.1-0.3 0.3-0.6 0.4-0.8 0.1-0.1 0.2-0.2 0.3-0.2 0.1 0 0.2 0.1 0.3 0.2 0.2 0.2 0.3 0.4 0.4 0.8 0.3 0.7 0.4 1.7 0.4 2.8 0 1.1-0.2 2-0.4 2.8-0.1 0.3-0.3 0.6-0.4 0.8-0.1 0.1-0.2 0.2-0.3 0.2z" fill="#FF00FF"/></g><g transform="translate(576 96)"><path d="M10 12h4v4h-4zM16 12h4v4h-4zM22 12h4v4h-4zM4 24h4v4h-4zM10 24h4v4h-4zM16 24h4v4h-4zM10 18h4v4h-4zM16 18h4v4h-4zM22 18h4v4h-4zM4 18h4v4h-4zM26 0v2h-4v-2h-14v2h-4v-2h-4v32h30v-32h-4zM28 30h-26v-22h26v22z" fill="#FF00FF"/></g><g transform="translate(624 96)"><path d="M16 2c8.8 0 16 5.8 16 13 0 7.2-7.2 13-16 13-0.8 0-1.7-0.1-2.5-0.2-3.4 3.4-7.5 4.1-11.5 4.1v-0.8c2.1-1 4-3 4-5.1 0-0.30-0.6-0.1-0.9-3.6-2.4-5.9-6-5.9-10.1 0-7.2 7.2-13 16-13z" fill="#FF00FF"/></g><g transform="translate(672 96)"><path d="M22 6h-12l-10 12v8c0 1.1 0.9 2 2 2h28c1.1 0 2-0.9 2-2v-8l-10-12zM20 22h-8l-2-2h12l-2 2zM2.6 18l8.3-10h10.1l8.3 10h-26.8zM8.9 12h14.2l-1.7-2h-10.9zM5.6 16h20.9l-1.7-2h-17.5z" fill="#FF00FF"/></g><g transform="translate(720 96)"><path d="M29 0h-9c-1.7 0-4 1-5.1 2.1l-14 14c-1.2 1.2-1.2 3.1 0 4.3l10.8 10.8c1.2 1.2 3.1 1.2 4.3 0l14-14c1.2-1.2 2.1-3.5 2.1-5.1v-9c0-1.7-1.4-3-3-3zM25 10c-1.7 0-3-1.3-3-3s1.3-3 3-3 3 1.3 3 3-1.3 3-3 3z" fill="#FF00FF"/></g><g transform="translate(768 96)"><path d="M19 12c-1 1-1 1-1 2v14h4c1.1 0 2 0.9 2 2h-16c0-1.1 0.9-2 2-2h4v-14c0-1 0-1-1-2l-8.6-8.6c-0.8-0.8-0.5-1.4 0.6-1.4h22c1.1 0 1.4 0.6 0.6 1.4l-8.6 8.6c0 0 0 0 0 0z" fill="#FF00FF"/></g><g transform="translate(816 96)"><path d="M26.7 0h-21.3c-2.9 0-5.3 2.4-5.3 5.3v21.3c0 2.9 2.4 5.3 5.3 5.3l21.3 0c2.9 0 5.3-2.4 5.3-5.3v-21.3c0-2.9-2.4-5.3-5.3-5.3zM27.2 16h-5.2v14h-6v-14h-2.9v-4.6h2.9v-3c0-4 1.7-6.4 6.5-6.4h5.5v5h-4.5c-1.30-1.5 0.7-1.5 2l0 2.5h6l-0.8 4.6z" fill="#FF00FF"/></g><g transform="translate(864 96)"><path d="M27 0c-2.8 0-5 2.2-5 5v15h4v12h6v-27c0-2.8-2.2-5-5-5zM13 0c-0.6 0-1 0.4-1 1v7c0 0.3-0.4 0.5-1 0.5-0.6 0-1-0.2-1-0.5v-7c0-0.6-0.4-1-1-1-0.6 0-1 0.4-1 1v7c0 0.3-0.4 0.5-1 0.5-0.6 0-1-0.2-1-0.5v-7c0-0.6-0.4-1-1-1-0.6 0-1 0.4-1 1v7c0 0.3-0.4 0.5-1 0.5s-1-0.2-1-0.5v-7c0-0.6-0.4-1-1-1s-1 0.4-1 1v9c0 0.9 0.8 1.4 1.7 2 1.1 0.8 2.3 1.8 2.3 4v16h6v-16c0-2.2 1.2-3.2 2.3-4 0.9-0.6 1.7-1.1 1.7-2v-9c0-0.6-0.4-1-1-1z" fill="#FF00FF"/></g><g transform="translate(912 96)"><path d="M6 18.1v13.9c0.3 0 0.7 0.1 1 0.1h1v-14h-1c-0.3 0-0.7 0-1 0.1zM24 18v14h1c0.3 0 0.70 1-0.1v-13.9c-0.30-0.7-0.1-1-0.1h-1zM32 16c0-8.8-7.2-16-16-16s-16 7.2-16 16c0 1.9 0.3 3.8 1 5.5-0.6 1-1 2.2-1 3.5 0 2.8 1.6 5.2 4 6.3v-12.7c-0.6 0.3-1.2 0.7-1.7 1.2-0.2-0.9-0.3-1.9-0.3-2.8 0-7.7 6.3-14 14-14s14 6.3 14 14c0 1-0.1 1.9-0.3 2.8-0.5-0.5-1.1-0.9-1.7-1.2v12.7c2.4-1.1 4-3.5 4-6.3 0-1.3-0.3-2.5-1-3.5 0.6-1.7 1-3.5 1-5.5z" fill="#FF00FF"/></g><g transform="translate(960 96)"><path d="M9.5 19c0 3.6 2.9 6.5 6.5 6.5s6.5-2.9 6.5-6.5-2.9-6.5-6.5-6.5-6.5 2.9-6.5 6.5zM30 8h-7c-0.5-2-1-4-3-4h-8c-2 0-2.5 2-3 4h-7c-1.1 0-2 0.9-2 2v18c0 1.1 0.9 2 2 2h28c1.1 0 2-0.9 2-2v-18c0-1.1-0.9-2-2-2zM16 27.9c-4.9 0-8.9-4-8.9-8.9 0-4.9 4-8.9 8.9-8.9 4.9 0 8.9 4 8.9 8.9 0 4.9-4 8.9-8.9 8.9zM30 14h-4v-2h4v2z" fill="#FF00FF"/></g></svg>