<?xml version="1.0" encoding="utf-8"?>
<!-- Generated by IcoMoon.io -->
<!DOCTYPE svg PUBLIC "-//W3C//DTD SVG 1.1//EN" "http://www.w3.org/Graphics/SVG/1.1/DTD/svg11.dtd">
<svg version="1.1" xmlns="http://www.w3.org/2000/svg" xmlns:xlink="http://www.w3.org/1999/xlink" width="32" height="32" viewBox="0 0 32 32" enable-background="new 0 0 88.324 70.824" xml:space="preserve">
<g id="bubble" class="icon-c">
	<path d="M16 2c8.837 0 16 5.82 16 13 0 7.18-7.163 13-16 13-0.849 0-1.682-0.054-2.495-0.158-3.437 3.437-7.539 4.053-11.505 4.144v-0.841c2.142-1.049 4-2.961 4-5.145 0-0.305-0.024-0.604-0.068-0.897-3.619-2.383-5.932-6.024-5.932-10.103 0-7.18 7.163-13 16-13z" fill="currentColor" />
  </g>
  <g id="bullhorn" class="icon-c">
    <path d="M32 13.414c0-6.279-1.837-11.373-4.109-11.413 0.009-0 0.018-0.001 0.027-0.001h-2.592c0 0-6.088 4.573-14.851 6.367-0.268 1.415-0.438 3.102-0.438 5.047 0 1.945 0.171 3.631 0.438 5.047 8.763 1.794 14.851 6.367 14.851 6.367h2.592c-0.009 0-0.018-0.001-0.027-0.001 2.272-0.040 4.109-5.134 4.109-11.413zM27.026 23.102c-0.293 0-0.61-0.304-0.773-0.486-0.395-0.439-0.775-1.124-1.1-1.979-0.727-1.913-1.127-4.478-1.127-7.223 0-2.744 0.4-5.309 1.127-7.223 0.325-0.855 0.705-1.54 1.1-1.979 0.163-0.182 0.48-0.486 0.773-0.486 0.293 0 0.61 0.304 0.773 0.486 0.395 0.439 0.775 1.124 1.1 1.979 0.727 1.913 1.127 4.479 1.127 7.223 0 2.744-0.4 5.309-1.127 7.223-0.325 0.855-0.705 1.54-1.1 1.979-0.163 0.181-0.48 0.486-0.773 0.486zM7.869 13.414c0-1.623 0.119-3.201 0.345-4.659-1.48 0.205-2.779 0.323-4.386 0.323-2.096 0-2.096 0-2.096 0l-1.733 2.959v2.755l1.733 2.959c0 0 0 0 2.096 0 1.606 0 2.905 0.118 4.386 0.323-0.226-1.458-0.345-3.036-0.345-4.659zM11.505 20.068l-4-0.766 2.558 10.048c0.132 0.52 0.648 0.782 1.146 0.583l3.705-1.483c0.498-0.199 0.698-0.749 0.444-1.221l-3.853-7.161zM27.026 17.148c-0.113 0-0.235-0.117-0.298-0.187-0.152-0.169-0.299-0.433-0.424-0.763-0.28-0.738-0.434-1.726-0.434-2.784 0-1.058 0.154-2.046 0.434-2.784 0.125-0.33 0.272-0.593 0.424-0.763 0.063-0.070 0.185-0.187 0.298-0.187 0.113 0 0.235 0.117 0.298 0.187 0.152 0.169 0.299 0.433 0.424 0.763 0.28 0.737 0.434 1.726 0.434 2.784 0 1.058-0.154 2.046-0.434 2.784-0.125 0.33-0.272 0.593-0.424 0.763-0.063 0.070-0.185 0.187-0.298 0.187z" fill="currentColor" />
  </g>
  <g id="calendar" class="icon-c">
    <path d="M10 12h4v4h-4zM16 12h4v4h-4zM22 12h4v4h-4zM4 24h4v4h-4zM10 24h4v4h-4zM16 24h4v4h-4zM10 18h4v4h-4zM16 18h4v4h-4zM22 18h4v4h-4zM4 18h4v4h-4zM26 0v2h-4v-2h-14v2h-4v-2h-4v32h30v-32h-4zM28 30h-26v-22h26v22z" fill="currentColor" />
  </g>
  <g id="camera" class="icon-c">
    <path d="M9.5 19c0 3.59 2.91 6.5 6.5 6.5s6.5-2.91 6.5-6.5-2.91-6.5-6.5-6.5-6.5 2.91-6.5 6.5zM30 8h-7c-0.5-2-1-4-3-4h-8c-2 0-2.5 2-3 4h-7c-1.1 0-2 0.9-2 2v18c0 1.1 0.9 2 2 2h28c1.1 0 2-0.9 2-2v-18c0-1.1-0.9-2-2-2zM16 27.875c-4.902 0-8.875-3.973-8.875-8.875 0-4.902 3.973-8.875 8.875-8.875 4.902 0 8.875 3.973 8.875 8.875 0 4.902-3.973 8.875-8.875 8.875zM30 14h-4v-2h4v2z" fill="currentColor" />
  </g>
  <g id="clubs" class="icon-c">
    <path d="M24.588 12.274c-1.845 0-3.503 0.769-4.683 2.022-0.5 0.531-1.368 1.16-2.306 1.713 0.441-1.683 1.834-3.803 2.801-4.733 1.239-1.193 2-2.87 2-4.734 0-3.59-2.859-6.503-6.4-6.541-3.541 0.038-6.4 2.951-6.4 6.541 0 1.865 0.761 3.542 2 4.734 0.967 0.93 2.36 3.050 2.801 4.733-0.939-0.553-1.806-1.182-2.306-1.713-1.18-1.253-2.838-2.022-4.683-2.022-3.575 0-6.471 2.927-6.471 6.541 0 3.614 2.897 6.542 6.471 6.542 1.845 0 3.503-0.792 4.683-2.045 0.525-0.558 1.451-1.254 2.447-1.832-0.094 4.615-2.298 8.005-4.541 9.341v1.179h12v-1.179c-2.244-1.335-4.448-4.726-4.541-9.341 0.995 0.578 1.922 1.274 2.447 1.832 1.18 1.253 2.838 2.045 4.683 2.045 3.575 0 6.471-2.928 6.471-6.542-0-3.614-2.897-6.541-6.471-6.541z" fill="currentColor" />
  </g>
  <g id="diamonds" class="icon-c">
    <path d="M16 0l-10 16 10 16 10-16z" fill="currentColor" />
  </g>
  <g id="drawer">
    <path d="M22 6h-12l-10 12v8c0 1.105 0.895 2 2 2h28c1.105 0 2-0.895 2-2v-8l-10-12zM20 22h-8l-2-2h12l-2 2zM2.603 18l8.333-10h10.127l8.333 10h-26.793zM8.905 12h14.19l-1.667-2h-10.856zM5.572 16h20.856l-1.667-2h-17.523z" fill="currentColor" />
  </g>
  <g id="droplet" class="icon-c">
    <path d="M27.998 19.797c-0-0.022-0.001-0.044-0.001-0.066-0.001-0.045-0.002-0.089-0.004-0.134-0.313-9.864-11.993-19.597-11.993-19.597s-11.68 9.733-11.993 19.598c-0.001 0.045-0.003 0.089-0.004 0.134-0 0.022-0.001 0.044-0.001 0.066-0.001 0.067-0.002 0.135-0.002 0.203 0 0.074 0.001 0.148 0.002 0.221 0 0.006 0 0.012 0 0.018 0.127 6.517 5.45 11.76 11.997 11.76 6.547 0 11.87-5.244 11.997-11.761 0-0.006 0-0.012 0-0.018 0.001-0.074 0.002-0.147 0.002-0.221 0-0.068-0.001-0.136-0.002-0.203zM23.998 20.148l-0 0.013c-0.041 2.103-0.892 4.073-2.395 5.548-1.504 1.477-3.495 2.291-5.604 2.291-0.389 0-0.775-0.028-1.154-0.082 4.346-2.589 7.257-7.335 7.257-12.76 0-0.608-0.037-1.207-0.108-1.796 1.259 2.311 1.939 4.462 2 6.363l0 0.005c0.001 0.030 0.002 0.059 0.002 0.089l0.001 0.045c0.001 0.046 0.002 0.091 0.002 0.137 0 0.049-0.001 0.099-0.002 0.148z" fill="currentColor" />
  </g>
  <g id="facebook" class="icon-c">
    <path d="M26.667 0h-21.333c-2.933 0-5.334 2.4-5.334 5.334v21.332c0 2.936 2.4 5.334 5.334 5.334l21.333-0c2.934 0 5.333-2.398 5.333-5.334v-21.332c0-2.934-2.399-5.334-5.333-5.334zM27.206 16h-5.206v14h-6v-14h-2.891v-4.58h2.891v-2.975c0-4.042 1.744-6.445 6.496-6.445h5.476v4.955h-4.473c-1.328-0.002-1.492 0.692-1.492 1.985l-0.007 2.48h6l-0.794 4.58z" fill="currentColor" />
  </g>
  <g id="food" class="icon-c">
    <path d="M27 0c-2.762 0-5 2.239-5 5v15h4v12h6v-27c0-2.761-2.239-5-5-5zM13 0c-0.552 0-1 0.448-1 1v7c0 0.276-0.448 0.5-1 0.5-0.552 0-1-0.224-1-0.5v-7c0-0.552-0.448-1-1-1-0.552 0-1 0.448-1 1v7c0 0.276-0.448 0.5-1 0.5-0.552 0-1-0.224-1-0.5v-7c0-0.552-0.448-1-1-1-0.552 0-1 0.448-1 1v7c0 0.276-0.448 0.5-1 0.5s-1-0.224-1-0.5v-7c0-0.552-0.448-1-1-1s-1 0.448-1 1v9c0 0.885 0.783 1.378 1.656 2 1.1 0.783 2.344 1.77 2.344 4v16h6v-16c0-2.23 1.243-3.217 2.344-4 0.873-0.622 1.656-1.115 1.656-2v-9c0-0.552-0.448-1-1-1z" fill="currentColor" />
  </g>
  <g id="glass" class="icon-c">
    <path d="M19 12c-1 1-1 1-1 2v14h4c1.105 0 2 0.895 2 2h-16c0-1.105 0.895-2 2-2h4v-14c0-1 0-1-1-2l-8.586-8.586c-0.778-0.778-0.514-1.414 0.586-1.414h22c1.1 0 1.364 0.636 0.586 1.414l-8.585 8.585c-0 0-0 0-0 0z" fill="currentColor" />
  </g>
  <g id="headphones" class="icon-c">
    <path d="M6 18.071v13.857c0.327 0.047 0.66 0.071 1 0.071h1v-14h-1c-0.34 0-0.673 0.025-1 0.071zM24 18v14h1c0.34 0 0.673-0.025 1-0.071v-13.857c-0.327-0.047-0.66-0.071-1-0.071h-1zM32 16c0-8.837-7.163-16-16-16s-16 7.163-16 16c0 1.919 0.338 3.76 0.958 5.465-0.609 1.038-0.958 2.245-0.958 3.535 0 2.792 1.635 5.202 4 6.326v-12.652c-0.629 0.299-1.206 0.689-1.714 1.153-0.187-0.913-0.286-1.859-0.286-2.827 0-7.732 6.268-14 14-14s14 6.268 14 14c0 0.969-0.098 1.914-0.286 2.827-0.509-0.464-1.085-0.854-1.714-1.153v12.652c2.365-1.124 4-3.534 4-6.326 0-1.29-0.349-2.498-0.958-3.535 0.62-1.705 0.958-3.546 0.958-5.465z" fill="currentColor" />
  </g>
  <g id="home" class="icon-c">
    <path d="M32 19l-6-6v-9h-4v5l-6-6-16 16v1h4v10h10v-6h4v6h10v-10h4z" fill="currentColor" />
  </g>
  <g id="home2" class="icon-c">
    <path d="M16 2l-16 16 3 3 3-3 2 12h6v-6h4v6h6l2-12 3 3 3-3-16-16zM16 14.828c-1.562 0-2.829-1.266-2.829-2.828s1.266-2.828 2.829-2.828c1.562 0 2.828 1.266 2.828 2.828 0 1.562-1.266 2.828-2.828 2.828z" fill="currentColor" />
  </g>
  <g id="newspaper" class="icon-c">
    <path d="M28 8v-4h-28v22c0 1.105 0.895 2 2 2h27c1.657 0 3-1.343 3-3v-17h-4zM26 26h-24v-20h24v20zM4 10h20v2h-20zM16 14h8v2h-8zM16 18h8v2h-8zM16 22h6v2h-6zM4 14h10v10h-10z" fill="currentColor" />
  </g>
  <g id="office" class="icon-c">
    <path d="M0 32h16v-32h-16v32zM10 4h4v4h-4v-4zM10 12h4v4h-4v-4zM10 20h4v4h-4v-4zM2 4h4v4h-4v-4zM2 12h4v4h-4v-4zM2 20h4v4h-4v-4zM18 10h14v2h-14zM18 32h4v-8h6v8h4v-18h-14z" fill="currentColor" />
  </g>
  <g id="pawn" class="icon-c">
    <path d="M23.001 19.874c0.636-1.148 0.999-2.468 0.999-3.874 0-3.229-1.913-6.010-4.667-7.274 1.023-0.916 1.667-2.245 1.667-3.726 0-2.761-2.239-5-5-5-2.761 0-5 2.239-5 5 0 1.481 0.644 2.81 1.667 3.726-2.754 1.264-4.667 4.046-4.667 7.274 0 1.405 0.363 2.726 0.999 3.874-4.184 2.421-6.999 6.945-6.999 12.126h28c0-5.182-2.815-9.705-6.999-12.126z" fill="currentColor" />
  </g>
  <g id="pencil" class="icon-c">
    <path d="M27 0c2.761 0 5 2.239 5 5 0 1.126-0.372 2.164-1 3l-2 2-7-7 2-2c0.836-0.628 1.874-1 3-1zM2 23l-2 9 9-2 18.5-18.5-7-7-18.5 18.5zM22.362 11.362l-14 14-1.724-1.724 14-14 1.724 1.724z" fill="currentColor" />
  </g>
  <g id="quill" class="icon-c">
    <path d="M12 18.333c0 0 6.373-3.824 9.961-2.313 0.744-1.133 1.477-2.354 2.194-3.601-3.51-0.86-8.155-0.086-8.155-0.086s5.944-3.566 9.583-2.45c0.73-1.316 1.439-2.614 2.124-3.822-2.899-0.196-5.707 0.272-5.707 0.272s3.723-2.234 7.081-2.612c1.056-1.714 2.037-3.059 2.919-3.721-17.531 0-28 20-32 32h2l6-10c0 0 2 2 8 0 1.421-0.474 2.842-1.789 4.237-3.56-3.519-0.892-8.237-0.106-8.237-0.106z" fill="currentColor" />
  </g>
  <g id="spades" class="icon-c">
    <path d="M25.549 10.88c-6.049-4.496-8.133-8.094-9.549-10.88v0c-0 0-0-0-0-0v0c-1.415 2.785-3.5 6.384-9.549 10.88-10.314 7.665-0.606 18.365 7.93 12.476-0.556 3.654-2.454 6.318-4.381 7.465v1.179h12.001v-1.179c-1.928-1.147-3.825-3.811-4.382-7.465 8.535 5.889 18.244-4.811 7.93-12.476z" fill="currentColor" />
  </g>
  <g id="tag" class="icon-c">
    <path d="M28.994 0h-9.018c-1.653 0-3.962 0.956-5.131 2.125l-13.968 13.968c-1.169 1.169-1.169 3.082 0 4.251l10.778 10.778c1.169 1.169 3.082 1.169 4.251 0l13.968-13.968c1.169-1.169 2.125-3.478 2.125-5.131v-9.018c0-1.653-1.353-3.006-3.006-3.006zM25 10c-1.657 0-3-1.343-3-3s1.343-3 3-3 3 1.343 3 3-1.343 3-3 3z" fill="currentColor" />
  </g>
  <g id="bubble2" class="icon-c">
  	<path d="M16 2c8.837 0 16 5.82 16 13 0 7.18-7.163 13-16 13-0.849 0-1.682-0.054-2.495-0.158-3.437 3.437-7.539 4.053-11.505 4.144v-0.841c2.142-1.049 4-2.961 4-5.145 0-0.305-0.024-0.604-0.068-0.897-3.619-2.383-5.932-6.024-5.932-10.103 0-7.18 7.163-13 16-13z" fill="currentColor" />
    </g>
    <g id="bullhorn2" class="icon-c">
      <path d="M32 13.414c0-6.279-1.837-11.373-4.109-11.413 0.009-0 0.018-0.001 0.027-0.001h-2.592c0 0-6.088 4.573-14.851 6.367-0.268 1.415-0.438 3.102-0.438 5.047 0 1.945 0.171 3.631 0.438 5.047 8.763 1.794 14.851 6.367 14.851 6.367h2.592c-0.009 0-0.018-0.001-0.027-0.001 2.272-0.040 4.109-5.134 4.109-11.413zM27.026 23.102c-0.293 0-0.61-0.304-0.773-0.486-0.395-0.439-0.775-1.124-1.1-1.979-0.727-1.913-1.127-4.478-1.127-7.223 0-2.744 0.4-5.309 1.127-7.223 0.325-0.855 0.705-1.54 1.1-1.979 0.163-0.182 0.48-0.486 0.773-0.486 0.293 0 0.61 0.304 0.773 0.486 0.395 0.439 0.775 1.124 1.1 1.979 0.727 1.913 1.127 4.479 1.127 7.223 0 2.744-0.4 5.309-1.127 7.223-0.325 0.855-0.705 1.54-1.1 1.979-0.163 0.181-0.48 0.486-0.773 0.486zM7.869 13.414c0-1.623 0.119-3.201 0.345-4.659-1.48 0.205-2.779 0.323-4.386 0.323-2.096 0-2.096 0-2.096 0l-1.733 2.959v2.755l1.733 2.959c0 0 0 0 2.096 0 1.606 0 2.905 0.118 4.386 0.323-0.226-1.458-0.345-3.036-0.345-4.659zM11.505 20.068l-4-0.766 2.558 10.048c0.132 0.52 0.648 0.782 1.146 0.583l3.705-1.483c0.498-0.199 0.698-0.749 0.444-1.221l-3.853-7.161zM27.026 17.148c-0.113 0-0.235-0.117-0.298-0.187-0.152-0.169-0.299-0.433-0.424-0.763-0.28-0.738-0.434-1.726-0.434-2.784 0-1.058 0.154-2.046 0.434-2.784 0.125-0.33 0.272-0.593 0.424-0.763 0.063-0.070 0.185-0.187 0.298-0.187 0.113 0 0.235 0.117 0.298 0.187 0.152 0.169 0.299 0.433 0.424 0.763 0.28 0.737 0.434 1.726 0.434 2.784 0 1.058-0.154 2.046-0.434 2.784-0.125 0.33-0.272 0.593-0.424 0.763-0.063 0.070-0.185 0.187-0.298 0.187z" fill="currentColor" />
    </g>
    <g id="calendar2" class="icon-c">
      <path d="M10 12h4v4h-4zM16 12h4v4h-4zM22 12h4v4h-4zM4 24h4v4h-4zM10 24h4v4h-4zM16 24h4v4h-4zM10 18h4v4h-4zM16 18h4v4h-4zM22 18h4v4h-4zM4 18h4v4h-4zM26 0v2h-4v-2h-14v2h-4v-2h-4v32h30v-32h-4zM28 30h-26v-22h26v22z" fill="currentColor" />
    </g>
    <g id="camera2" class="icon-c">
      <path d="M9.5 19c0 3.59 2.91 6.5 6.5 6.5s6.5-2.91 6.5-6.5-2.91-6.5-6.5-6.5-6.5 2.91-6.5 6.5zM30 8h-7c-0.5-2-1-4-3-4h-8c-2 0-2.5 2-3 4h-7c-1.1 0-2 0.9-2 2v18c0 1.1 0.9 2 2 2h28c1.1 0 2-0.9 2-2v-18c0-1.1-0.9-2-2-2zM16 27.875c-4.902 0-8.875-3.973-8.875-8.875 0-4.902 3.973-8.875 8.875-8.875 4.902 0 8.875 3.973 8.875 8.875 0 4.902-3.973 8.875-8.875 8.875zM30 14h-4v-2h4v2z" fill="currentColor" />
    </g>
    <g id="clubs2" class="icon-c">
      <path d="M24.588 12.274c-1.845 0-3.503 0.769-4.683 2.022-0.5 0.531-1.368 1.16-2.306 1.713 0.441-1.683 1.834-3.803 2.801-4.733 1.239-1.193 2-2.87 2-4.734 0-3.59-2.859-6.503-6.4-6.541-3.541 0.038-6.4 2.951-6.4 6.541 0 1.865 0.761 3.542 2 4.734 0.967 0.93 2.36 3.050 2.801 4.733-0.939-0.553-1.806-1.182-2.306-1.713-1.18-1.253-2.838-2.022-4.683-2.022-3.575 0-6.471 2.927-6.471 6.541 0 3.614 2.897 6.542 6.471 6.542 1.845 0 3.503-0.792 4.683-2.045 0.525-0.558 1.451-1.254 2.447-1.832-0.094 4.615-2.298 8.005-4.541 9.341v1.179h12v-1.179c-2.244-1.335-4.448-4.726-4.541-9.341 0.995 0.578 1.922 1.274 2.447 1.832 1.18 1.253 2.838 2.045 4.683 2.045 3.575 0 6.471-2.928 6.471-6.542-0-3.614-2.897-6.541-6.471-6.541z" fill="currentColor" />
    </g>
    <g id="diamonds2" class="icon-c">
      <path d="M16 0l-10 16 10 16 10-16z" fill="currentColor" />
    </g>
    <g id="drawer2">
      <path d="M22 6h-12l-10 12v8c0 1.105 0.895 2 2 2h28c1.105 0 2-0.895 2-2v-8l-10-12zM20 22h-8l-2-2h12l-2 2zM2.603 18l8.333-10h10.127l8.333 10h-26.793zM8.905 12h14.19l-1.667-2h-10.856zM5.572 16h20.856l-1.667-2h-17.523z" fill="currentColor" />
    </g>
    <g id="droplet2" class="icon-c">
      <path d="M27.998 19.797c-0-0.022-0.001-0.044-0.001-0.066-0.001-0.045-0.002-0.089-0.004-0.134-0.313-9.864-11.993-19.597-11.993-19.597s-11.68 9.733-11.993 19.598c-0.001 0.045-0.003 0.089-0.004 0.134-0 0.022-0.001 0.044-0.001 0.066-0.001 0.067-0.002 0.135-0.002 0.203 0 0.074 0.001 0.148 0.002 0.221 0 0.006 0 0.012 0 0.018 0.127 6.517 5.45 11.76 11.997 11.76 6.547 0 11.87-5.244 11.997-11.761 0-0.006 0-0.012 0-0.018 0.001-0.074 0.002-0.147 0.002-0.221 0-0.068-0.001-0.136-0.002-0.203zM23.998 20.148l-0 0.013c-0.041 2.103-0.892 4.073-2.395 5.548-1.504 1.477-3.495 2.291-5.604 2.291-0.389 0-0.775-0.028-1.154-0.082 4.346-2.589 7.257-7.335 7.257-12.76 0-0.608-0.037-1.207-0.108-1.796 1.259 2.311 1.939 4.462 2 6.363l0 0.005c0.001 0.030 0.002 0.059 0.002 0.089l0.001 0.045c0.001 0.046 0.002 0.091 0.002 0.137 0 0.049-0.001 0.099-0.002 0.148z" fill="currentColor" />
    </g>
    <g id="facebook2" class="icon-c">
      <path d="M26.667 0h-21.333c-2.933 0-5.334 2.4-5.334 5.334v21.332c0 2.936 2.4 5.334 5.334 5.334l21.333-0c2.934 0 5.333-2.398 5.333-5.334v-21.332c0-2.934-2.399-5.334-5.333-5.334zM27.206 16h-5.206v14h-6v-14h-2.891v-4.58h2.891v-2.975c0-4.042 1.744-6.445 6.496-6.445h5.476v4.955h-4.473c-1.328-0.002-1.492 0.692-1.492 1.985l-0.007 2.48h6l-0.794 4.58z" fill="currentColor" />
    </g>
    <g id="food2" class="icon-c">
      <path d="M27 0c-2.762 0-5 2.239-5 5v15h4v12h6v-27c0-2.761-2.239-5-5-5zM13 0c-0.552 0-1 0.448-1 1v7c0 0.276-0.448 0.5-1 0.5-0.552 0-1-0.224-1-0.5v-7c0-0.552-0.448-1-1-1-0.552 0-1 0.448-1 1v7c0 0.276-0.448 0.5-1 0.5-0.552 0-1-0.224-1-0.5v-7c0-0.552-0.448-1-1-1-0.552 0-1 0.448-1 1v7c0 0.276-0.448 0.5-1 0.5s-1-0.224-1-0.5v-7c0-0.552-0.448-1-1-1s-1 0.448-1 1v9c0 0.885 0.783 1.378 1.656 2 1.1 0.783 2.344 1.77 2.344 4v16h6v-16c0-2.23 1.243-3.217 2.344-4 0.873-0.622 1.656-1.115 1.656-2v-9c0-0.552-0.448-1-1-1z" fill="currentColor" />
    </g>
    <g id="glass2" class="icon-c">
      <path d="M19 12c-1 1-1 1-1 2v14h4c1.105 0 2 0.895 2 2h-16c0-1.105 0.895-2 2-2h4v-14c0-1 0-1-1-2l-8.586-8.586c-0.778-0.778-0.514-1.414 0.586-1.414h22c1.1 0 1.364 0.636 0.586 1.414l-8.585 8.585c-0 0-0 0-0 0z" fill="currentColor" />
    </g>
    <g id="headphones2" class="icon-c">
      <path d="M6 18.071v13.857c0.327 0.047 0.66 0.071 1 0.071h1v-14h-1c-0.34 0-0.673 0.025-1 0.071zM24 18v14h1c0.34 0 0.673-0.025 1-0.071v-13.857c-0.327-0.047-0.66-0.071-1-0.071h-1zM32 16c0-8.837-7.163-16-16-16s-16 7.163-16 16c0 1.919 0.338 3.76 0.958 5.465-0.609 1.038-0.958 2.245-0.958 3.535 0 2.792 1.635 5.202 4 6.326v-12.652c-0.629 0.299-1.206 0.689-1.714 1.153-0.187-0.913-0.286-1.859-0.286-2.827 0-7.732 6.268-14 14-14s14 6.268 14 14c0 0.969-0.098 1.914-0.286 2.827-0.509-0.464-1.085-0.854-1.714-1.153v12.652c2.365-1.124 4-3.534 4-6.326 0-1.29-0.349-2.498-0.958-3.535 0.62-1.705 0.958-3.546 0.958-5.465z" fill="currentColor" />
    </g>
    <g id="home-2" class="icon-c">
      <path d="M32 19l-6-6v-9h-4v5l-6-6-16 16v1h4v10h10v-6h4v6h10v-10h4z" fill="currentColor" />
    </g>
    <g id="home22" class="icon-c">
      <path d="M16 2l-16 16 3 3 3-3 2 12h6v-6h4v6h6l2-12 3 3 3-3-16-16zM16 14.828c-1.562 0-2.829-1.266-2.829-2.828s1.266-2.828 2.829-2.828c1.562 0 2.828 1.266 2.828 2.828 0 1.562-1.266 2.828-2.828 2.828z" fill="currentColor" />
    </g>
    <g id="newspaper2" class="icon-c">
      <path d="M28 8v-4h-28v22c0 1.105 0.895 2 2 2h27c1.657 0 3-1.343 3-3v-17h-4zM26 26h-24v-20h24v20zM4 10h20v2h-20zM16 14h8v2h-8zM16 18h8v2h-8zM16 22h6v2h-6zM4 14h10v10h-10z" fill="currentColor" />
    </g>
    <g id="office2" class="icon-c">
      <path d="M0 32h16v-32h-16v32zM10 4h4v4h-4v-4zM10 12h4v4h-4v-4zM10 20h4v4h-4v-4zM2 4h4v4h-4v-4zM2 12h4v4h-4v-4zM2 20h4v4h-4v-4zM18 10h14v2h-14zM18 32h4v-8h6v8h4v-18h-14z" fill="currentColor" />
    </g>
    <g id="pawn2" class="icon-c">
      <path d="M23.001 19.874c0.636-1.148 0.999-2.468 0.999-3.874 0-3.229-1.913-6.010-4.667-7.274 1.023-0.916 1.667-2.245 1.667-3.726 0-2.761-2.239-5-5-5-2.761 0-5 2.239-5 5 0 1.481 0.644 2.81 1.667 3.726-2.754 1.264-4.667 4.046-4.667 7.274 0 1.405 0.363 2.726 0.999 3.874-4.184 2.421-6.999 6.945-6.999 12.126h28c0-5.182-2.815-9.705-6.999-12.126z" fill="currentColor" />
    </g>
    <g id="pencil2" class="icon-c">
      <path d="M27 0c2.761 0 5 2.239 5 5 0 1.126-0.372 2.164-1 3l-2 2-7-7 2-2c0.836-0.628 1.874-1 3-1zM2 23l-2 9 9-2 18.5-18.5-7-7-18.5 18.5zM22.362 11.362l-14 14-1.724-1.724 14-14 1.724 1.724z" fill="currentColor" />
    </g>
    <g id="quill2" class="icon-c">
      <path d="M12 18.333c0 0 6.373-3.824 9.961-2.313 0.744-1.133 1.477-2.354 2.194-3.601-3.51-0.86-8.155-0.086-8.155-0.086s5.944-3.566 9.583-2.45c0.73-1.316 1.439-2.614 2.124-3.822-2.899-0.196-5.707 0.272-5.707 0.272s3.723-2.234 7.081-2.612c1.056-1.714 2.037-3.059 2.919-3.721-17.531 0-28 20-32 32h2l6-10c0 0 2 2 8 0 1.421-0.474 2.842-1.789 4.237-3.56-3.519-0.892-8.237-0.106-8.237-0.106z" fill="currentColor" />
    </g>
    <g id="spades2" class="icon-c">
      <path d="M25.549 10.88c-6.049-4.496-8.133-8.094-9.549-10.88v0c-0 0-0-0-0-0v0c-1.415 2.785-3.5 6.384-9.549 10.88-10.314 7.665-0.606 18.365 7.93 12.476-0.556 3.654-2.454 6.318-4.381 7.465v1.179h12.001v-1.179c-1.928-1.147-3.825-3.811-4.382-7.465 8.535 5.889 18.244-4.811 7.93-12.476z" fill="currentColor" />
    </g>
    <g id="tag2" class="icon-c">
      <path d="M28.994 0h-9.018c-1.653 0-3.962 0.956-5.131 2.125l-13.968 13.968c-1.169 1.169-1.169 3.082 0 4.251l10.778 10.778c1.169 1.169 3.082 1.169 4.251 0l13.968-13.968c1.169-1.169 2.125-3.478 2.125-5.131v-9.018c0-1.653-1.353-3.006-3.006-3.006zM25 10c-1.657 0-3-1.343-3-3s1.343-3 3-3 3 1.343 3 3-1.343 3-3 3z" fill="currentColor" />
    </g>
</svg>